# xmcd
#
# Track frame offsets: 
#        150
#        19815
#        33970
#        52455
#        75837
#        93077
#        112450
#        128457
#        154222
#        176095
#        192795
#        210310
#        227667
#        247225
#
# Disc length: 3521 seconds
#
# Revision: 1
# Processed by: cddbd v1.5.2PL0 Copyright (c) Steve Scherf et al.
# Submitted via: ExactAudioCopy v1.0b4
#
DISCID=b60dbf0e
DTITLE=Mississippi Heat - Footprints On The Ceiling
DYEAR=2002
DGENRE=Blues
TTITLE0=Goin' Home
TTITLE1=Jean's Jive
TTITLE2=She's Got Everything
TTITLE3=What Kind Of Man Is That?
TTITLE4=That Ain't Love
TTITLE5=Blues For George Baze
TTITLE6=Caribbean Sunshine
TTITLE7=Heartbroken
TTITLE8=Madcap Hop
TTITLE9=Hobo Blues
TTITLE10=Still Havin' A Ball
TTITLE11=Gonna Leave And Let Her Be
TTITLE12=What Else Can I Do?
TTITLE13=Footprints On The Ceiling
EXTD=YEAR: 2002 ID3G: 0
EXTT0=
EXTT1=
EXTT2=
EXTT3=
EXTT4=
EXTT5=
EXTT6=
EXTT7=
EXTT8=
EXTT9=
EXTT10=
EXTT11=
EXTT12=
EXTT13=
PLAYORDER=
